<svg preserveAspectRatio="none" width="78" height="22" viewBox="0 0 78 22" fill="none" xmlns="http://www.w3.org/2000/svg">
<path d="M4.17137 13.48V1.00002H0.514229V17H9.88566V13.48H4.17137Z" fill="white"/>
<path d="M19.5676 5.57145V6.64574C18.8133 5.77716 17.6933 5.25145 16.1619 5.25145C13.1676 5.25145 10.6991 7.88002 10.6991 11.2857C10.6991 14.6915 13.1676 17.32 16.1619 17.32C17.6933 17.32 18.8133 16.7943 19.5676 15.9257V17H22.9962V5.57145H19.5676ZM16.8476 14.0743C15.2705 14.0743 14.1276 13 14.1276 11.2857C14.1276 9.57145 15.2705 8.49717 16.8476 8.49717C18.4248 8.49717 19.5676 9.57145 19.5676 11.2857C19.5676 13 18.4248 14.0743 16.8476 14.0743Z" fill="white"/>
<path d="M32.2087 5.25145C30.7001 5.25145 29.5573 5.80002 28.9401 6.64574V5.57145H25.5116V17H28.9401V10.76C28.9401 9.13717 29.8087 8.40574 31.0658 8.40574C32.163 8.40574 33.0544 9.06859 33.0544 10.4857V17H36.483V9.98288C36.483 6.89717 34.5173 5.25145 32.2087 5.25145Z" fill="white"/>
<path d="M47.1346 1.00002V6.64574C46.3803 5.77716 45.2603 5.25145 43.7289 5.25145C40.7346 5.25145 38.266 7.88002 38.266 11.2857C38.266 14.6915 40.7346 17.32 43.7289 17.32C45.2603 17.32 46.3803 16.7943 47.1346 15.9257V17H50.5632V1.00002H47.1346ZM44.4146 14.0743C42.8374 14.0743 41.6946 13 41.6946 11.2857C41.6946 9.57145 42.8374 8.49717 44.4146 8.49717C45.9917 8.49717 47.1346 9.57145 47.1346 11.2857C47.1346 13 45.9917 14.0743 44.4146 14.0743Z" fill="white"/>
<path d="M54.7928 4.56574C55.9128 4.56574 56.8499 3.62859 56.8499 2.50859C56.8499 1.38859 55.9128 0.451451 54.7928 0.451451C53.6728 0.451451 52.7357 1.38859 52.7357 2.50859C52.7357 3.62859 53.6728 4.56574 54.7928 4.56574ZM53.0785 17H56.5071V5.57145H53.0785V17Z" fill="white"/>
<path d="M65.3017 3.97145V0.680022C61.5074 0.451451 59.7474 2.37145 59.7474 5.57145H58.216V8.86288H59.7474V17H63.176V8.86288H65.3017V5.57145H63.176C63.176 4.24574 64.0217 3.85716 65.3017 3.97145Z" fill="white"/>
<path d="M74.2071 5.57145L72.0585 12.5657L69.5214 5.57145H65.7499L70.2985 16.4743C69.7957 17.8686 69.0414 18.3715 67.4414 18.3715V21.5715C70.6414 21.7315 72.6757 20.2915 73.9557 16.6572L77.8642 5.57145H74.2071Z" fill="white"/>
</svg>
